# xmcd
#
# Track frame offsets: 
#        150
#        29080
#        47557
#        62918
#        78624
#        99204
#        114477
#        134373
#        152503
#        167250
#        191205
#        208476
#        230011
#        246228
#        266020
#        285849
#        302457
#        319704
#        337219
#
# Disc length: 4769 seconds
#
# Revision: 0
# Processed by: cddbd v1.5.2PL0 Copyright (c) Steve Scherf et al.
# Submitted via: ExactAudioCopy v0.99pb4
#
DISCID=12129f13
DTITLE=George McCrae - Latest and Greatest Hits
DYEAR=2005
DGENRE=R&B
TTITLE0=Rock Your Baby
TTITLE1=You Can't Have It All
TTITLE2=I Can't Leave You Alone (I'll Keep Holding On)
TTITLE3=Rockin Chair
TTITLE4=Party Down
TTITLE5=Nice and Slow
TTITLE6=Love In Motion
TTITLE7=Make It Right
TTITLE8=Let's Dance (People All Over The World)
TTITLE9=Kiss Me (The Way I Like It)
TTITLE10=It's Been So Long
TTITLE11=(You've Got) My Love, My Life, My Soul
TTITLE12=Why Can't We Live Together
TTITLE13=Hey Sexy Dancer
TTITLE14=Keep Rockin' You Baby
TTITLE15=I Get Lifted
TTITLE16=Nothing But Love
TTITLE17=Honey (I'll Live My Life For You)
TTITLE18=Rock Your Baby (30th Anniversary Remix)
EXTD=
EXTT0=
EXTT1=
EXTT2=
EXTT3=
EXTT4=
EXTT5=
EXTT6=
EXTT7=
EXTT8=
EXTT9=
EXTT10=
EXTT11=
EXTT12=
EXTT13=
EXTT14=
EXTT15=
EXTT16=
EXTT17=
EXTT18=
PLAYORDER=
